<svg xmlns="http://www.w3.org/2000/svg" viewBox="0 0 200 200" role="img" aria-label="Grand Gaffer - Master tradesperson wearing PPE and holding a plunger">
  <title>Grand Gaffer - Master tradesperson wearing PPE and holding a plunger</title>
  <defs>
    <linearGradient id="bg23" x1="0" y1="0" x2="0" y2="1">
      <stop offset="0" stop-color="#b5891f"/><stop offset="1" stop-color="#e6bb4a"/>
    </linearGradient>
    <clipPath id="clip23"><circle cx="100" cy="100" r="100"/></clipPath>
  </defs>
  <g clip-path="url(#clip23)">
    <rect width="200" height="200" fill="url(#bg23)"/>
    <circle cx="100" cy="196" r="86" fill="rgba(255,255,255,.10)"/>
    <!-- torso / hi-vis vest with reflective banding -->
    <path d="M46 200v-24c0-20 16-34 36-38h36c20 4 36 18 36 38v24z" fill="#c9f24a"/>
    <path d="M74 142l10 58h-9l-9-52z" fill="#eef3f6" opacity=".9"/>
    <path d="M126 142l-10 58h9l9-52z" fill="#eef3f6" opacity=".9"/>
    <rect x="46" y="176" width="108" height="8" fill="#eef3f6" opacity=".85"/>
    <!-- neck + head -->
    <rect x="88" y="112" width="24" height="28" rx="8" fill="#7d4a2c"/>
    <rect x="66" y="60" width="68" height="76" rx="30" fill="#7d4a2c"/>
    <!-- eyes (hidden under sealed helmets) -->
    
    <!-- headgear -->
    <path d="M60 84c0-24 18-44 40-44s40 20 40 44v16H60z" fill="#e0b03a"/><path d="M72 78c0-14 12-24 28-24s28 10 28 24v14H72z" fill="#f5a623"/><path d="M78 76c2-9 10-15 20-16" stroke="#fff" stroke-width="4" fill="none" opacity=".7" stroke-linecap="round"/><rect x="52" y="86" width="14" height="24" rx="5" fill="#7b3fa0"/><rect x="134" y="86" width="14" height="24" rx="5" fill="#7b3fa0"/>
    <!-- tool -->
    <g transform="translate(124,84) rotate(14) scale(0.86)"><rect x="27" y="4" width="6" height="30" rx="3" fill="#b5762f"/><path d="M16 34h28l-4 18H20z" fill="#c1392b"/></g>
    <!-- glove holding tool -->
    <path d="M138 128c14-4 26 4 28 18l-24 6z" fill="#c9f24a" opacity=".95"/>
    <circle cx="146" cy="140" r="14" fill="#2b2f33"/>
  </g>
  <circle cx="100" cy="100" r="98" fill="none" stroke="rgba(0,0,0,.12)" stroke-width="4"/>
</svg>
